<svg width="1281" height="1308" viewBox="0 0 1281 1308" fill="none" xmlns="http://www.w3.org/2000/svg">
<path d="M614.252 619.209C547.562 563.821 457.674 529.311 370.843 553.811C346.201 560.763 279.521 592.923 267.644 614.961C261.247 626.838 259.763 643.124 270.54 652.922C289.743 670.389 315.222 648.573 333.709 641.177C409.42 610.904 483.607 594.87 561.942 627.958C569.177 631.015 579.611 635.183 584.394 641.59C500.903 636.949 419.843 664.93 352.033 711.802C269.985 768.502 205.606 866.685 90.7028 822.8C-12.6266 783.335 -20.2048 649.451 30.5417 564.628C105.052 440.098 254.819 392.692 392.679 426.203C483.809 448.362 606.169 514.81 614.242 619.209H614.252Z" fill="white"/>
<path d="M611.759 683.952C580.225 825.092 638.711 960.621 751.445 1046.05C770.426 1060.43 792.051 1071.58 810.799 1086.3C948.558 1194.55 810.92 1367.06 651.577 1287.84C475.221 1200.18 486.341 879.451 571.517 732.075C582.022 713.901 594.968 696.757 611.759 683.942V683.952Z" fill="white"/>
<path d="M679.044 669.007C733.484 684.234 795.966 687.322 850.829 672.731C916.107 655.365 989.355 601.278 1028.66 546.768C1038.01 533.791 1044.09 518.705 1055.11 505.981C1163.32 381.057 1333.58 518.13 1264.63 665.698C1178.5 850.036 863.302 819.622 725.563 718.351C719.185 713.669 673.827 675.264 679.064 669.007H679.044Z" fill="white"/>
<path d="M671.547 621.671C680.437 598.977 686.865 575.304 692.263 551.52C726.067 402.621 692.707 301.058 581.941 199.595C537.39 158.788 477.29 131.785 518.369 58.8995C553.051 -2.64404 636.673 -13.4412 696.976 14.8332C915.138 117.133 839.942 479.291 690.286 609.31C687.793 611.47 673.525 623.639 671.547 621.671Z" fill="white"/>
<path d="M581.901 669.028C558.713 685.143 537.3 699.905 518.37 721.257C426.867 824.446 455.767 941.842 429.268 1062.94C399.057 1200.99 224.719 1207.47 238.18 1026.23C245.728 924.637 329.481 820.288 402.588 754.87C453.123 709.663 512.386 673.69 581.911 669.018L581.901 669.028Z" fill="white"/>
<path d="M656.563 691.429C711.981 807.251 825.522 855.283 947.056 872.841C988.821 878.875 1041.26 871.61 1064.53 917.22C1095.27 977.472 1042.07 1036.92 981.526 1042.48C873.08 1052.45 763.01 977.805 703.364 892.417C662.526 833.961 654.545 777.776 651.507 707.726C651.386 704.931 650.165 685.052 656.573 691.429H656.563Z" fill="white"/>
<path d="M1029.23 211.714C1083.1 262.753 1054.05 370.593 1019.64 425.699C951.596 534.679 829.861 624.295 701.436 644.093C699.923 637.635 703.353 639.744 706.128 637.675C792.717 573.367 851.224 516.112 880.507 408.595C894.412 357.525 901.021 247.879 934.422 213.5C959.275 187.92 1003.4 187.254 1029.22 211.714H1029.23Z" fill="white"/>
<path d="M644.13 599.27L616.411 508.756C594.08 458.988 551.749 415.124 503.122 390.472C450.832 363.963 303.739 353.348 349.874 261.431C378.642 204.106 455.373 218.011 502.284 241.916C637.269 310.715 669.811 459.402 644.14 599.28L644.13 599.27Z" fill="white"/>
</svg>
